<?xml version="1.0" encoding="UTF-8" standalone="no"?><svg width="533" height="533" viewBox="0 0 5330 5330" preserveAspectRatio="xMidYMid" version="1.1" xmlns="http://www.w3.org/2000/svg"><path style="fill:#80c3a2" d="M 2665,304 620,1484 l 0,2360 L 2665,5025 4709,3845 V 1484 Z"/><path d="m 2713,1044 -697,89 -144,313 -1091,8 -605,335 -15,481 1659,336 -3,1848 838,449 831,-469 -4,-1692 1653,-437 146,-428 -753,-450 -1045,7 -187,-298 c -311,-64 -267,-92 -581,-92 z m -559,499 h 213 v 271 h -213 z m 814,7 h 180 v 249 h -180 z m 1100,185 h 353 v 233 h -353 z m -3162,16 h 337 v 191 H 907 Z" style="fill:#f7f8f9"/><path style="fill:#61a387" d="m 2655,511 c -195,18 103,182 216,237 -5,-3 -10,-7 -15,-11 81,40 64,35 15,11 118,81 389,112 361,269 174,31 348,103 513,217 133,28 -26,117 121,86 91,2 244,-1 83,-74 -414,-248 -837,-481 -1258,-719 z m -842,465 c -365,54 -385,212 -132,200 103,-21 118,-106 132,-200 z M 630,2528 l 0,213 c 87,-156 317,18 436,78 185,96 239,293 350,456 87,229 99,478 141,719 -35,200 46,271 180,318 45,-64 -32,-288 -41,-390 -68,-397 -170,-813 -450,-1117 C 1119,2679 974,2527 776,2544 727,2540 677,2540 630,2528 Z m 3574,127 c -66,61 -459,419 -135,289 133,-115 282,-192 442,-256 111,-40 210,165 178,105 0,-87 82,-207 40,-289 -130,-51 -415,59 -525,151 z m -578,1278 c -101,240 -77,412 32,223 50,-70 57,-196 -32,-223 z"/><path style="fill:#cbd1d4" d="m 1949,1428 c -14,25 -27,49 -35,66 -30,62 -34,78 -33,150 1,44 4,104 7,134 l 6,54 95,67 c 52,38 124,96 160,130 74,70 79,82 105,241 18,112 44,159 125,226 110,92 176,112 329,103 59,-3 100,-12 136,-28 27,-12 66,-43 103,-77 -6,-4 -15,-9 -26,-13 -28,-12 -46,-13 -92,-4 -35,6 -105,8 -180,4 -111,-6 -126,-10 -166,-35 -61,-39 -121,-117 -130,-170 -9,-56 -81,-276 -101,-306 -10,-17 -11,-26 -3,-36 2,-3 2,-6 2,-9 -15,-4 -29,-10 -44,-18 -58,-34 -114,-95 -144,-160 C 2043,1700 2040,1681 2040,1570 c 0,-44 1,-80 4,-106 -2,-5 -5,-8 -9,-6 -9,3 -24,-1 -35,-11 -11,-10 -26,-14 -35,-11 -8,4 -15,1 -15,-3 0,-0 -0,-0 -0,-1 z M 1576,2060 c -8,0 -26,9 -40,20 -36,29 -167,86 -213,95 -21,3 -71,15 -110,25 -82,21 -194,25 -274,8 -30,-7 -154,-12 -279,-13 -124,-1 -267,-5 -318,-10 -42,-4 -113,-0 -126,3 120,210 330,226 563,236 82,1 584,319 646,402 139,184 221,342 324,688 147,499 162,951 184,984 338,166 227,-335 376,-524 84,2 116,7 122,-70 -58,-60 -184,-166 -193,-168 46,-123 63,-239 217,-270 -4,-9 -20,-18 -45,-16 -30,3 -41,-2 -80,-41 -71,-72 -76,-85 -57,-115 13,-20 14,-28 5,-46 l -5,-9 c -91,-267 349,-156 360,-233 -9,-10 -43,-17 -147,-29 -70,-9 -112,-51 -131,-130 -17,-70 -12,-145 0,-149 31,-9 -0,-34 -0,-34 0,0 -68,19 -287,82 -20,1 -26,-11 -53,-104 -46,-156 -100,-256 -204,-380 -66,-79 -208,-200 -234,-200 z m 2200,3 c -11,-1 -28,7 -64,31 -136,90 -275,255 -350,415 -66,140 -103,235 -103,265 0,20 -4,25 -15,20 -2,-0 -4,-0 -6,0 L 3235,2985 l -28,45 c -15,25 -32,52 -38,61 -10,14 -8,22 10,42 27,29 36,26 45,-8 9,-35 106,-235 167,-344 77,-135 167,-250 296,-381 70,-72 114,-124 118,-141 3,-16 8,-28 11,-28 3,0 34,18 70,39 36,21 99,49 140,61 74,24 81,24 463,22 229,-1 402,-6 425,-13 43,-11 102,-62 138,-114 -32,-15 -135,-25 -312,-31 -138,-4 -244,-3 -310,5 -55,6 -147,11 -205,11 -97,1 -113,-1 -220,-37 -101,-34 -159,-62 -220,-105 -3,-2 -6,-4 -10,-4 z m 85,364 -55,58 c -197,207 -348,453 -432,703 -22,63 -53,149 -71,190 -18,41 -42,111 -53,154 -20,76 -20,82 -5,159 22,108 13,182 -29,266 l -32,65 27,55 c 59,116 58,216 -1,329 -43,79 -27,87 70,34 86,-46 79,-32 100,-245 C 3416,3829 3454,3647 3550,3365 c 63,-186 157,-382 240,-500 35,-49 123,-148 195,-221 L 4118,2510 l -37,-9 C 4060,2494 4027,2488 4005,2485 c -22,-4 -62,-17 -90,-31 z"/><path style="fill:#102631" d="m 2662,304 c -46,4 -124,46 -379,192 C 2119,590 1875,729 1740,805 c -135,75 -281,159 -325,185 -44,25 -129,75 -190,110 -60,35 -137,80 -170,100 -33,20 -96,56 -140,79 -44,24 -134,79 -200,124 -91,62 -138,85 -195,102 -75,22 -75,22 -80,60 l -5,39 -80,18 c -253,58 -317,101 -345,235 -14,67 8,237 44,336 C 110,2348 235,2474 355,2495 c 81,15 72,-47 76,640 3,711 -12,623 133,703 92,51 125,68 375,211 80,46 190,108 245,138 273,150 774,434 816,463 14,10 79,49 145,86 65,38 163,94 218,126 55,32 143,82 195,111 52,29 99,53 103,53 18,0 79,-31 133,-68 32,-21 94,-58 138,-83 44,-25 96,-54 115,-65 61,-35 252,-148 345,-205 50,-30 128,-75 176,-101 85,-45 123,-65 353,-197 61,-34 148,-84 195,-109 47,-26 114,-64 150,-86 36,-21 178,-102 315,-178 138,-76 261,-149 276,-163 l 28,-25 1,-615 L 4895,2515 l 25,-3 c 86,-9 204,-72 258,-140 81,-100 141,-258 148,-386 8,-129 -6,-184 -65,-244 -52,-53 -110,-79 -236,-104 -130,-26 -124,-24 -124,-54 0,-63 -6,-69 -86,-88 -62,-14 -87,-26 -141,-69 -38,-30 -94,-63 -135,-79 C 4440,1308 4267,1216 4085,1105 4003,1055 3872,979 3795,935 3718,892 3603,827 3540,790 3477,753 3364,688 3290,646 c -74,-41 -229,-131 -345,-200 -115,-70 -226,-130 -245,-136 -6,-2 -12,-3 -19,-4 -5,-0 -11,-0 -18,-0 z m -7,207 c 8,1 20,7 37,17 23,13 79,44 126,70 103,57 217,121 370,211 63,37 160,91 215,120 55,30 143,79 195,110 52,30 133,76 180,103 110,62 260,157 260,166 0,3 -63,8 -141,10 -132,3 -147,6 -194,30 -28,15 -65,38 -82,52 -16,15 -33,25 -38,25 -5,0 -17,-16 -27,-36 -33,-71 -156,-273 -187,-308 -56,-65 -71,-68 -303,-75 -155,-4 -223,-10 -259,-23 -65,-21 -150,-19 -265,4 -81,17 -115,19 -246,14 C 2122,996 2071,1004 2005,1050 c -60,41 -132,136 -199,263 -32,59 -59,106 -61,106 -3,0 -20,-11 -37,-24 -18,-14 -56,-36 -86,-50 -51,-24 -64,-25 -201,-25 -93,0 -148,-4 -148,-10 0,-17 200,-142 415,-261 55,-31 179,-100 276,-154 C 2058,839 2189,768 2250,735 c 61,-33 134,-75 163,-93 29,-18 85,-50 126,-72 41,-21 83,-45 93,-52 7,-5 13,-6 22,-5 z m 25,616 c 31,0 62,11 109,35 l 74,39 95,-7 c 52,-3 128,-8 171,-11 l 76,-7 25,51 c 14,28 43,78 64,110 21,33 60,102 87,156 l 49,96 -3,112 c -3,128 -8,139 -85,190 -67,45 -208,171 -235,210 -16,23 -24,58 -32,135 -7,64 -18,120 -30,143 -29,58 -142,164 -201,191 -36,16 -77,25 -136,28 -153,9 -219,-11 -329,-103 -81,-67 -107,-114 -125,-226 -26,-159 -31,-171 -105,-241 -36,-34 -108,-92 -160,-130 l -95,-67 -6,-54 c -3,-30 -6,-90 -7,-134 -1,-72 3,-88 33,-150 19,-39 59,-110 91,-161 33,-50 66,-105 75,-122 17,-30 19,-30 85,-30 37,0 127,5 198,10 l 130,10 73,-35 c 48,-24 80,-35 112,-35 z m 520,258 c -36,6 -158,59 -199,89 -87,66 -144,154 -170,264 -14,60 -25,196 -17,209 7,10 24,9 170,-15 100,-16 170,-49 215,-100 40,-46 70,-133 70,-203 0,-55 -41,-226 -59,-244 -1,-1 -4,-1 -9,-0 z M 2136,1415 c -57,1 -80,5 -87,15 -5,8 -9,71 -9,140 0,111 3,130 24,175 30,65 86,126 144,160 37,22 60,27 155,33 61,4 117,8 124,8 16,3 14,-34 -4,-165 -25,-171 -76,-252 -210,-333 -54,-32 -64,-35 -137,-35 z M 4485,1498 l 81,97 c 132,160 127,157 293,197 80,19 174,40 210,48 l 65,14 -3,74 c -5,106 -26,210 -55,268 -31,61 -105,127 -156,141 -23,7 -196,12 -425,13 -382,2 -389,1 -463,-22 -41,-12 -104,-40 -140,-61 -36,-21 -67,-39 -70,-39 -3,0 -8,12 -11,28 -4,17 -48,69 -118,141 -129,131 -219,246 -296,381 -61,109 -158,309 -167,344 -9,35 -18,37 -45,8 -19,-20 -20,-28 -10,-42 6,-9 23,-36 38,-61 l 28,-45 5,-310 c 6,-249 11,-329 27,-408 15,-79 23,-101 42,-115 50,-35 186,-146 232,-190 62,-60 87,-124 95,-255 L 3645,1605 3708,1558 3770,1510 h 277 c 152,0 312,-2 356,-5 z m -3513,4 c 54,0 128,2 232,4 l 357,6 59,50 c 64,53 65,54 73,166 12,154 27,180 207,325 75,61 139,112 143,115 6,7 50,261 61,350 3,25 -1,87 -10,139 -28,164 -15,310 35,399 20,36 21,38 3,64 -23,36 -42,34 -50,-5 -15,-68 -75,-203 -155,-340 -118,-206 -150,-250 -275,-379 -66,-69 -117,-129 -124,-150 l -13,-36 -60,41 C 1316,2348 1203,2365 755,2355 c -355,-8 -358,-7 -440,-95 -80,-86 -115,-188 -115,-340 0,-44 1,-79 3,-79 20,0 326,-62 367,-74 70,-21 69,-20 160,-135 86,-109 75,-128 239,-127 z M 3098,1578 3110,1600 c 30,56 -13,144 -86,175 -40,17 -42,17 -49,0 -9,-23 42,-118 85,-160 z m -894,13 c 9,-2 26,7 51,30 37,32 67,82 79,131 6,24 4,26 -20,26 -69,-1 -123,-62 -123,-140 0,-29 3,-45 13,-47 z m -1123,59 C 988,1649 964,1652 945,1663 c -17,9 -86,72 -154,141 -120,123 -123,127 -105,145 31,29 165,93 224,106 30,7 93,11 140,9 160,-6 231,-58 335,-247 67,-123 74,-142 49,-152 -8,-3 -115,-7 -238,-11 -48,-1 -86,-2 -116,-3 z m 3124,4 c -43,0 -98,1 -167,2 -148,2 -158,2 -158,20 0,29 74,166 130,242 57,77 109,115 183,134 127,33 348,-10 435,-85 27,-24 27,-32 0,-56 -12,-10 -61,-65 -110,-122 -49,-56 -104,-109 -121,-118 -26,-13 -60,-18 -191,-17 z m 66,139 c 18,0 34,1 43,5 28,11 82,56 95,80 9,17 5,22 -22,33 -57,23 -112,24 -154,5 -41,-18 -104,-81 -104,-104 0,-12 84,-22 141,-21 z M 1005,1800 h 102 c 75,0 101,3 101,13 0,26 -42,78 -73,91 -37,15 -112,25 -141,19 -11,-3 -29,-7 -41,-10 -34,-7 -28,-35 15,-77 z m -547,133 c -8,-1 -17,-1 -27,0 -20,3 -54,5 -77,5 H 310 v 43 c 0,24 8,56 20,75 14,23 26,31 38,27 9,-3 28,-7 43,-11 33,-7 88,-67 88,-94 0,-24 -16,-42 -41,-46 z m 4472,8 c -46,-2 -87,1 -92,6 -14,14 14,75 50,105 23,19 43,26 71,26 34,0 41,-3 50,-26 5,-15 9,-45 7,-67 L 5015,1945 Z M 2504,2190 c -29,0 -56,4 -59,10 -13,20 6,78 34,108 36,39 72,40 100,5 50,-63 12,-124 -75,-124 z m 359,0 c -7,0 -16,0 -28,1 -30,3 -61,10 -69,17 -22,18 -19,70 4,109 24,39 48,40 89,6 38,-33 56,-84 40,-115 -8,-14 -14,-18 -36,-18 z m 999,237 50,25 c 28,14 68,27 90,31 22,3 55,9 75,15 l 37,9 -132,133 c -72,73 -160,172 -195,221 -83,118 -177,314 -240,500 -96,282 -133,464 -169,833 -21,213 -14,199 -100,245 -97,53 -113,44 -70,-34 60,-113 60,-213 1,-329 l -27,-55 32,-65 c 43,-84 51,-158 29,-266 -15,-77 -15,-83 5,-159 11,-43 35,-113 53,-154 18,-41 49,-127 71,-190 84,-250 235,-496 432,-703 z M 1445,2440 c 17,0 180,164 227,228 121,165 213,353 296,606 69,206 83,235 119,250 17,7 30,19 30,27 0,16 -33,49 -41,41 -9,-9 -28,105 -28,165 0,73 22,146 60,198 l 30,41 -30,56 c -67,129 -63,267 11,362 17,23 17,24 2,42 -10,10 -20,18 -23,18 -9,-1 -121,-48 -127,-53 -2,-3 -18,-107 -33,-233 -51,-408 -64,-480 -130,-703 -103,-346 -174,-501 -313,-685 C 1433,2722 1277,2558 1225,2523 L 1195,2501 1255,2495 c 33,-4 86,-17 120,-30 33,-13 65,-24 70,-24 z M 630,2528 l 26,5 c 16,3 80,7 143,11 145,8 182,22 315,135 124,105 188,175 260,282 52,79 147,274 193,399 40,106 111,428 151,683 12,72 20,154 18,182 l -3,50 -80,-45 c -44,-26 -138,-77 -210,-116 -71,-38 -247,-136 -390,-220 -143,-84 -296,-172 -340,-196 L 635,3655 631,3090 Z M 4656,2530 h 34 l -2,563 -2,562 L 4575,3721 c -60,37 -162,95 -225,131 -63,35 -139,80 -170,100 C 4147,3973 4004,4057 3860,4140 c -144,82 -266,150 -271,150 -13,0 -5,-84 20,-250 11,-63 23,-158 30,-210 16,-126 70,-342 113,-455 107,-280 221,-474 370,-628 86,-88 184,-158 244,-175 45,-13 241,-40 288,-40 z m -1622,147 c 3,-0 6,-0 7,0 5,5 12,55 15,112 6,113 -0,141 -48,185 -20,18 -39,22 -133,27 -245,12 -284,12 -401,6 C 2362,3004 2349,3003 2325,2980 c -82,-76 -83,-171 -5,-270 l 20,-25 22,20 c 13,12 50,37 83,55 55,31 69,34 160,37 154,6 271,-24 376,-94 22,-15 42,-24 52,-26 z M 1146,3069 c -52,-3 -105,18 -154,64 -115,107 -97,260 37,347 41,27 52,29 112,26 55,-3 75,-9 110,-34 108,-75 127,-224 41,-323 -43,-51 -94,-78 -146,-81 z m 3052,4 c -21,0 -42,5 -62,15 -93,46 -155,148 -140,230 16,88 57,142 140,185 34,18 101,20 139,5 44,-16 113,-88 131,-135 25,-67 16,-139 -26,-198 -48,-67 -115,-104 -180,-102 z M 2659,3190 c 311,0 323,0 351,20 77,55 77,176 -0,230 -22,15 -61,17 -325,20 -165,3 -316,2 -336,-1 -45,-8 -76,-32 -94,-76 -29,-68 -11,-129 50,-171 32,-22 39,-21 355,-21 z m -1530,31 c 12,-0 25,6 39,21 26,27 27,64 5,95 -19,28 -57,28 -84,0 -26,-28 -26,-58 0,-92 12,-16 24,-24 37,-24 z m 3072,8 c 18,1 35,9 48,25 26,33 26,66 2,87 -27,24 -68,20 -96,-8 -30,-29 -32,-58 -5,-85 14,-14 32,-21 50,-19 z M 2660,3630 c 310,0 323,0 348,20 15,11 34,33 43,47 37,56 13,156 -45,192 -29,17 -54,19 -345,19 -291,0 -316,-1 -345,-19 C 2275,3867 2240,3812 2240,3775 c 0,-32 52,-121 80,-135 10,-6 151,-10 339,-10 z m -5,451 c 315,-3 327,-1 355,17 87,62 75,194 -19,242 -31,16 -67,18 -330,17 -162,-1 -304,-3 -316,-5 -31,-6 -81,-66 -89,-108 -9,-49 0,-80 40,-123 L 2328,4085 Z m -202,454 c 60,-0 140,0 226,1 l 313,5 29,23 c 16,14 27,28 24,33 -3,4 -43,31 -91,61 -49,30 -131,78 -184,106 l -95,51 -135,-69 c -73,-38 -163,-83 -200,-101 -37,-19 -67,-38 -67,-42 -1,-12 51,-57 74,-66 5,-2 45,-3 106,-3 z"/></svg> 
